<svg width="24" height="24" color="#cccccc" viewBox="0 0 24 24" xmlns="http://www.w3.org/2000/svg"><path d="M20.186 19.742c1.15-1.15.883-2.424.404-2.707-.336-.198-4.749-2.684-4.749-2.684-.344-.216-.686-.106-.893.142l-.005-.004-1.626 1.625a.674.674 0 0 1-.824.1 14.052 14.052 0 0 1-2.632-2.075 14.054 14.054 0 0 1-2.074-2.632.674.674 0 0 1 .1-.824L9.51 9.057l-.004-.005c.243-.203.361-.544.143-.893 0 0-2.487-4.413-2.685-4.75-.283-.478-1.556-.745-2.707.405-2.566 2.568-1.081 8.207 3.32 12.608 4.398 4.399 10.04 5.887 12.608 3.32z" fill="currentColor"></path></svg>