<svg width="24" height="24" color="#4d4d4d" viewBox="0 0 24 24" xmlns="http://www.w3.org/2000/svg"><path d="M14.943 10.314a3.334 3.334 0 1 0-5.753 3.372 3.334 3.334 0 0 0 5.753-3.372z" fill="currentColor"></path><path fill-rule="evenodd" clip-rule="evenodd" d="M7.878 2.06C8.944 2.013 9.286 2 12 2h-.003c2.717 0 3.056.012 4.123.06 1.065.05 1.792.218 2.43.465.667.25 1.271.644 1.77 1.153.51.5.903 1.105 1.155 1.772.245.636.414 1.362.464 2.427.048 1.067.06 1.407.06 4.123s-.012 3.056-.06 4.122c-.05 1.064-.22 1.792-.465 2.427a4.908 4.908 0 0 1-1.154 1.772 4.892 4.892 0 0 1-1.77 1.154c-.636.247-1.364.415-2.429.464-1.066.049-1.406.061-4.122.061s-3.056-.012-4.123-.06c-1.064-.05-1.791-.218-2.428-.465a4.897 4.897 0 0 1-1.77-1.154 4.9 4.9 0 0 1-1.154-1.772c-.247-.635-.415-1.363-.464-2.427C2.012 15.056 2 14.716 2 12s.013-3.057.06-4.124c.048-1.064.217-1.79.465-2.427a4.909 4.909 0 0 1 1.154-1.77 4.897 4.897 0 0 1 1.772-1.154c.635-.247 1.362-.415 2.427-.464zM16.3 4.935a1.2 1.2 0 1 1 2.078 1.2 1.2 1.2 0 0 1-2.078-1.2zM12 6.864a5.136 5.136 0 1 0 .003 10.272A5.136 5.136 0 0 0 12 6.865z" fill="currentColor"></path></svg>