<svg width="24" height="24" viewBox="0 0 24 24" xmlns="http://www.w3.org/2000/svg"><path fill-rule="evenodd" clip-rule="evenodd" d="M11.932 12.193c2.726 0 4.936-2.17 4.936-4.847 0-2.676-2.21-4.846-4.936-4.846S6.996 4.67 6.996 7.346c0 2.677 2.21 4.847 4.936 4.847zm0-6.785c1.09 0 1.974.868 1.974 1.938 0 1.071-.884 1.939-1.974 1.939-1.09 0-1.975-.868-1.975-1.939.002-1.07.885-1.937 1.975-1.938z" fill="currentColor"></path><path d="M16.846 14.93a9.32 9.32 0 0 1-3.109 1.187l3.121 3.065c.35.342.487.843.36 1.312a1.37 1.37 0 0 1-.979.96 1.4 1.4 0 0 1-1.336-.354l-2.971-2.917L8.96 21.1a1.4 1.4 0 0 1-1.336.354 1.37 1.37 0 0 1-.98-.96 1.34 1.34 0 0 1 .36-1.312l3.12-3.064a9.336 9.336 0 0 1-2.961-1.099 1.343 1.343 0 0 1-.467-1.858 1.397 1.397 0 0 1 1.89-.47 6.735 6.735 0 0 0 6.794-.061 1.404 1.404 0 0 1 1.384-.051c.437.227.717.667.734 1.152a1.35 1.35 0 0 1-.652 1.2z" fill="currentColor"></path></svg>