<svg width="14" height="14" viewBox="0 0 24 24" xmlns="http://www.w3.org/2000/svg"><path d="M10.75 12.75h2.5a1.5 1.5 0 0 0 1.5-1.5v-1a1.5 1.5 0 0 0-1.5-1.5h-2.5v4z" fill="currentColor"></path><path fill-rule="evenodd" clip-rule="evenodd" d="M2.436 4.184C2 5.04 2 6.16 2 8.4v7.2c0 2.24 0 3.36.436 4.216a4 4 0 0 0 1.748 1.748C5.04 22 6.16 22 8.4 22h7.2c2.24 0 3.36 0 4.216-.436a4 4 0 0 0 1.748-1.748C22 18.96 22 17.84 22 15.6V8.4c0-2.24 0-3.36-.436-4.216a4 4 0 0 0-1.748-1.748C18.96 2 17.84 2 15.6 2H8.4c-2.24 0-3.36 0-4.216.436a4 4 0 0 0-1.748 1.748zM9.5 7a.5.5 0 0 0-.5.5v9a.5.5 0 0 0 .5.5h.75a.5.5 0 0 0 .5-.5v-2h2.5a3.25 3.25 0 0 0 3.25-3.25v-1A3.25 3.25 0 0 0 13.25 7H9.5z" fill="currentColor"></path></svg>