<svg width="14" height="14" viewBox="0 0 24 24" xmlns="http://www.w3.org/2000/svg"><g clip-path="url(#a)" fill="currentColor"><path d="M12.6 0h-1.2v24h1.2V0zM15.907 6.39a8.3 8.3 0 0 1 .285-.08 2.833 2.833 0 0 0 4.637-.031c.154.038.29.076.404.111a.72.72 0 0 1 .5.631l.334 3.374a.78.78 0 0 1-.51.816c-.25.09-.563.2-.897.307l1.301 5.322c.025.103.008.21-.067.285-.166.164-.553.455-1.346.656l-.298 4.472a.8.8 0 0 1-.798.747h-.504l-.26-5.001a12.763 12.763 0 0 1-.375 0L18.053 23h-.505a.8.8 0 0 1-.798-.747l-.298-4.472c-.793-.201-1.18-.492-1.346-.656-.075-.074-.092-.182-.067-.285l1.311-5.363a30.506 30.506 0 0 1-.773-.266.78.78 0 0 1-.509-.817l.34-3.374a.72.72 0 0 1 .499-.63zM5.5 1a1.812 1.812 0 0 0-1.8 1.99l.15 1.517a1.657 1.657 0 0 0 3.3 0L7.3 2.99A1.811 1.811 0 0 0 5.501 1zM3.282 6.428a9.35 9.35 0 0 0-.873.362.734.734 0 0 0-.409.67V12s.001 1.416 1.137 2.302l.148 7.913a.8.8 0 0 0 .8.785h.866L5.5 12.237 6.049 23h.866a.8.8 0 0 0 .8-.785l.148-7.91C9 13.417 9 12 9 12V7.46a.734.734 0 0 0-.409-.67 9.32 9.32 0 0 0-.872-.363 2.83 2.83 0 0 1-4.437 0zM16.7 2.99a1.81 1.81 0 1 1 3.607-.297l.253-.253c.602-.602 1.464-.581 2.047.05L24 4l-.56.56c-.602.602-1.463.581-2.047-.05l-1.122-1.217-.122 1.214a1.658 1.658 0 0 1-3.298 0l-.152-1.517z"/></g><defs><clipPath id="a"><path fill="#fff" d="M0 0h24v24H0z"/></clipPath></defs></svg>