<svg width="24" height="24" color="#4d4d4d" viewBox="0 0 24 24" xmlns="http://www.w3.org/2000/svg"><path fill-rule="evenodd" clip-rule="evenodd" d="M20.5 3.49A11.918 11.918 0 0 0 12.052 0C5.464 0 .109 5.337.103 11.889c0 2.098.55 4.14 1.592 5.947L0 24l6.335-1.654a11.997 11.997 0 0 0 5.71 1.449h.007c6.58 0 11.942-5.337 11.948-11.895 0-3.176-1.243-6.164-3.5-8.41zm-8.448 18.298a9.938 9.938 0 0 1-5.058-1.38l-.361-.217-3.758.98 1.003-3.648-.235-.377a9.808 9.808 0 0 1-1.518-5.257c0-5.451 4.456-9.882 9.932-9.882a9.907 9.907 0 0 1 7.023 2.897 9.812 9.812 0 0 1 2.904 6.99c-.006 5.457-4.462 9.894-9.933 9.894zm5.447-7.407c-.298-.149-1.764-.867-2.04-.97-.274-.097-.475-.148-.67.149-.2.296-.773.969-.945 1.163-.171.2-.349.222-.647.074-.298-.148-1.26-.462-2.4-1.477-.888-.787-1.483-1.762-1.661-2.058-.172-.297-.017-.457.132-.605.132-.131.298-.348.447-.519.148-.17.2-.296.297-.496.098-.2.052-.37-.023-.519-.074-.148-.67-1.613-.922-2.206-.24-.582-.487-.502-.67-.508-.172-.011-.372-.011-.573-.011a1.1 1.1 0 0 0-.796.37c-.275.297-1.042 1.015-1.042 2.48 0 1.466 1.07 2.875 1.22 3.074.149.2 2.102 3.199 5.098 4.488.71.308 1.265.49 1.7.627.717.228 1.364.194 1.88.12.572-.086 1.764-.719 2.016-1.414.246-.696.246-1.29.172-1.415-.075-.125-.275-.2-.573-.347z" fill="currentColor"></path></svg>