<svg width="14" height="14" viewBox="0 0 24 24" xmlns="http://www.w3.org/2000/svg"><path fill-rule="evenodd" clip-rule="evenodd" d="M12 20a2 2 0 1 1 0-4 2 2 0 0 1 0 4zM2.192 7.65A14.942 14.942 0 0 1 12 4a14.94 14.94 0 0 1 9.645 3.511c.134.113.303.264.509.455a.6.6 0 0 1 .016.864l-1.275 1.275a.6.6 0 0 1-.83.019 12.149 12.149 0 0 0-.556-.485A11.95 11.95 0 0 0 12 7a11.952 11.952 0 0 0-7.742 2.832c-.088.074-.196.17-.323.288a.6.6 0 0 1-.831-.017L1.829 8.829a.6.6 0 0 1 .015-.864c.138-.128.254-.233.348-.314zm3.913 4.556c.13-.115.24-.209.332-.281A8.962 8.962 0 0 1 12 10a8.96 8.96 0 0 1 5.253 1.691c.168.121.38.293.634.516a.6.6 0 0 1 .03.876L16.64 14.36a.6.6 0 0 1-.811.035 5.969 5.969 0 0 0-.531-.408A5.972 5.972 0 0 0 12 13a5.972 5.972 0 0 0-3.381 1.043c-.121.083-.27.2-.448.35a.6.6 0 0 1-.812-.034l-1.28-1.28a.6.6 0 0 1 .026-.873z" fill="currentColor"></path></svg>