<svg xmlns="http://www.w3.org/2000/svg" width="414" height="104" viewBox="0 0 414 104"><g clip-path="url(#208082e3a2782b2dd6d30b3b2b860b9e__a)"><path fill="#F6F6F6" d="M0 0h414v104H0z"/><path d="M208.95 37.037h-52.734v-6.924h28.362v-4.628a9.495 9.495 0 1 1 18.99 0v5.171h.161a5.8 5.8 0 0 1 5.801 5.801.58.58 0 0 1-.58.58z" fill="#fff"/><path d="M239.527 23.113h-30.212a.918.918 0 0 1-.918-.918 4.59 4.59 0 0 1 4.59-4.59h6.577v-.977a7.58 7.58 0 1 1 15.161 0v.978h1.13a4.59 4.59 0 0 1 4.59 4.59.918.918 0 0 1-.918.917z" fill="#fff"/><path fill="#E3E3E3" d="M201 52h12v10h-12z"/><path fill="#D1D1D1" d="M202 53h1v2h-1z"/><path fill="#D1D1D1" d="M204 59h1v2h-1z"/><path fill="#D1D1D1" d="M208 56h1v2h-1z"/><path d="M193.992 65.798L201 64V40l-7.008-9.297v35.095z" fill="#D9D9D9"/><path d="M193.992 65.798h-4.875V30.703h4.875v35.095z" fill="#C5C5C5"/><path d="M189.117 67.05L149 77.326V0h22l18.117 24.15v42.9z" fill="#D9D9D9"/><path d="M151.127-15.815l36.868 43.092v3L151.127-3.642v-12.173z" fill="#C2C2C2"/><path d="M187.995 34.627l-36.868-25.71v9.781l36.868 18.93v-3z" fill="#C2C2C2"/><path d="M150.96 28.81l37.035 13.108v3l-37.035-7.952V28.81z" fill="#C2C2C2"/><path d="M150.96 45.386l37.035 3.852v3H150.96v-6.852z" fill="#C2C2C2"/><path d="M187.995 57.487l-37.035 1.291v7.02l37.035-5.311v-3z" fill="#C2C2C2"/><path d="M0 0h149.004v77.336L45 104H0V0z" fill="#BBB"/><path d="M0 51.994h125.933V79.29L0 104V51.994z" fill="#B9B9B9"/><path fill="#A6A6A6" d="M109.387 52h2v52h-2z"/><path fill="#A6A6A6" d="M79.585 52h3v52h-3z"/><path fill="#999" d="M32.198 52h4v52h-4z"/><path d="M125.922 51.994h15.411v27.303h-15.411V51.994z" fill="#ABABAB"/><path d="M134 7.985L141 10v12l-7-1.405V7.985z" fill="#D1D1D1"/><path d="M126 5.682l-12-3.455V16.58l12 2.41V5.682z" fill="#D1D1D1"/><path d="M126 32.182l-12-1.455v14.25l12 .455v-13.25z" fill="#D1D1D1"/><path d="M134 45.735l7 .265V34l-7-.849v12.584z" fill="#D1D1D1"/><path d="M104 44.599V29.515l-15-1.818V44.03l15 .569z" fill="#D1D1D1"/><path d="M75 43.5V26l-22-2.667v19.334l22 .833z" fill="#D1D1D1"/><path d="M34 41.947V21.03L9 18v23l25 .947z" fill="#D1D1D1"/><path d="M53 4.333V0h51v14.572l-15-3.011V0H75v8.75L53 4.333z" fill="#D1D1D1"/><path d="M53 .584h19.695v7.703L75 8.75V0H53v.584z" fill="#ADADAD"/><path d="M104 0H89v.584h12.695V14.11l2.305.463V0z" fill="#ADADAD"/><path d="M114 2.227l12 3.455v13.307l-2.305-.463V6.266L114 3.475V2.227z" fill="#ADADAD"/><path d="M141 10l-7-2.015v1.248l4.695 1.351v10.953L141 22V10z" fill="#ADADAD"/><path d="M126 32.182l-12-1.455v.864l9.695 1.175v12.578l2.305.088v-13.25z" fill="#ADADAD"/><path d="M134 34.015l4.695.57v11.328L141 46V34l-7-.849v.864z" fill="#ADADAD"/><path d="M104 44.599V29.515l-15-1.818v.864l12.695 1.538v14.412l2.305.087z" fill="#ADADAD"/><path d="M75 26v17.5l-2.305-.087V26.584L53 24.197v-.864L75 26z" fill="#ADADAD"/><path d="M34 41.947V21.03L9 18v.864l22.695 2.75V41.86l2.305.087z" fill="#ADADAD"/><path d="M213 64h-12l-7.005 1.796h-4.875v1.25l-47.775 12.25h-15.439L-.002 104H368l-98.996-25.547v-12.43L255 64.258v2.846h-29.97L213 64z" fill="#FEFEFE"/><path d="M212 64h-10l-87 40h184l-87-40z" fill="#EEE"/><path fill="#F2F2F2" d="M201 62h12v2h-12z"/><path d="M209 104l-2-40-2 40h4z" fill="#fff"/><path d="M414 0H273.603L249.58 22.177v41.416L414 84.217V0z" fill="#D3D3D3"/><path d="M225 67.098V43.33L213 50v14l12 3.098z" fill="#D7D7D7"/><path d="M225.003 67.098V43.33h30v23.768h-30z" fill="#EDEDED"/><path d="M227 51v-5h2v5h-2z" fill="#D9D9D9"/><path d="M231 51v-5h2v5h-2z" fill="#D9D9D9"/><path d="M235 51v-5h2v5h-2z" fill="#D9D9D9"/><path d="M239 51v-5h2v5h-2z" fill="#D9D9D9"/><path d="M243 51v-5h2v5h-2z" fill="#D9D9D9"/><path d="M247 51v-5h2v5h-2z" fill="#D9D9D9"/><path d="M251 51v-5h2v5h-2z" fill="#D9D9D9"/><path d="M227 58v-5h2v5h-2z" fill="#D9D9D9"/><path d="M231 58v-5h2v5h-2z" fill="#D9D9D9"/><path d="M235 58v-5h2v5h-2z" fill="#D9D9D9"/><path d="M239 58v-5h2v5h-2z" fill="#D9D9D9"/><path d="M243 58v-5h2v5h-2z" fill="#D9D9D9"/><path d="M247 58v-5h2v5h-2z" fill="#D9D9D9"/><path d="M251 58v-5h2v5h-2z" fill="#D9D9D9"/><path d="M227 65v-5h2v5h-2z" fill="#D9D9D9"/><path d="M231 65v-5h2v5h-2z" fill="#D9D9D9"/><path d="M235 65v-5h2v5h-2z" fill="#D9D9D9"/><path d="M239 65v-5h2v5h-2z" fill="#D9D9D9"/><path d="M243 65v-5h2v5h-2z" fill="#D9D9D9"/><path d="M247 65v-5h2v5h-2z" fill="#D9D9D9"/><path d="M251 65v-5h2v5h-2z" fill="#D9D9D9"/><path d="M214.759 50.292l-1.147.54v12.252l1.147.212V50.292z" fill="#CBCBCB"/><path d="M215.568 63.446V49.91l1.457-.686v14.49l-1.457-.27z" fill="#CBCBCB"/><path d="M218.145 63.923l1.843.34V47.83l-1.843.867v15.226z" fill="#CBCBCB"/><path d="M221.374 47.177V64.52l2.107.39V46.184l-2.107.993z" fill="#CBCBCB"/><path d="M253 52h2v20.5a.5.5 0 0 1-.5.5h-1a.5.5 0 0 1-.5-.5V52z" fill="#C7C7C7"/><path d="M247 50h2v20.5a.5.5 0 0 1-.5.5h-1a.5.5 0 0 1-.5-.5V50z" fill="#C7C7C7"/><path d="M243 48h2v20.5a.5.5 0 0 1-.5.5h-1a.5.5 0 0 1-.5-.5V48z" fill="#C7C7C7"/><path d="M258 51h3v20.5a.5.5 0 0 1-.5.5h-2a.5.5 0 0 1-.5-.5V51z" fill="#C7C7C7"/><path d="M264 56h3v20.5a.5.5 0 0 1-.5.5h-2a.5.5 0 0 1-.5-.5V56z" fill="#C7C7C7"/><path d="M306.088 58c12.892 0 23.344-10.451 23.344-23.343 0-12.893-10.452-23.344-23.344-23.344-10.38 0-19.178 6.775-22.213 16.145a7.42 7.42 0 0 0-4.195.58c-2.948-4.08-7.745-6.735-13.162-6.735-6.312 0-11.783 3.604-14.465 8.867a7.232 7.232 0 0 0-10.098 6.641v.028c-5.008.378-8.955 4.562-8.955 9.667 0 5.354 4.34 9.694 9.694 9.694.724 0 1.429-.079 2.108-.23A8.978 8.978 0 0 0 253 61.286a8.96 8.96 0 0 0 7.07-3.445 7.232 7.232 0 0 0 11.432-4.866 16.26 16.26 0 0 0 10.594-10.893 7.463 7.463 0 0 0 1.832-.067C287.01 51.301 295.766 58 306.088 58z" fill="#C7C7C7"/><path d="M414 0h-40.786l-104.21 36.82v41.633L368 104h46V0z" fill="#D1D1D1"/><path d="M391.133 2.402L414-4.437V46.98l-22.867.737V2.402z" fill="#BCBCBC"/><path d="M381.133 5.393l-39.631 11.852v32.07l39.631-1.276V5.393z" fill="#BCBCBC"/><path d="M381.133 62.427l-39.631-1.69v24.029l39.631 7.176V62.427z" fill="#BCBCBC"/><path d="M391.133 93.753l22.799 4.128V63.827l-22.799-.973v30.899z" fill="#BCBCBC"/><path d="M335.502 83.68v-23.2l-26.909-1.148v29.341l26.909 6.934V83.68z" fill="#BCBCBC"/><path d="M304.593 78.083V59.16l-18.717-.798v16.33l18.717 3.39z" fill="#BCBCBC"/><path d="M282.876 74.15V58.235L271 57.728V72l11.876 2.15z" fill="#BCBCBC"/><path d="M285.876 51.107l18.717-.603v-22.22l-18.717 5.597v17.226z" fill="#BCBCBC"/><path d="M282.876 34.779v16.424L271 51.586V38.33l11.876-3.551z" fill="#BCBCBC"/><path d="M308.593 27.087v23.288l26.909-.867V19.04l-26.909 8.047z" fill="#BCBCBC"/><path d="M414-4.437l-22.867 6.84v45.314l2-.065V2.99L414-3.168v-1.269z" fill="#AAA"/><path d="M341.502 17.245l39.631-11.852V6.53l-37.631 11.105v31.615l-2 .064v-32.07z" fill="#AAA"/><path d="M343.502 60.822l-2-.086v24.03l39.631 7.176v-.957l-37.631-6.724v-23.44z" fill="#AAA"/><path d="M413.932 97.881l-22.799-4.128v-30.9l2 .086v30.19l20.799 3.716v1.036z" fill="#AAA"/><path d="M310.593 59.417v28.7l10.898 2.77V59.886l1.557.067v31.332l12.454 3.167v1.156l-26.909-6.934V59.332l2 .085z" fill="#AAA"/><path d="M304.593 77.31v.773l-18.717-3.39v-16.33l2 .085v15.875l16.717 2.987z" fill="#AAA"/><path d="M282.876 73.43v.72L271 72V57.728l2 .085v13.852l9.876 1.764z" fill="#AAA"/><path d="M287.876 51.042l-2 .065V33.88l18.717-5.597v.834l-16.717 4.934v16.99z" fill="#AAA"/><path d="M273 51.521v-13.08l9.876-2.914v-.748L271 38.33v13.256l2-.065z" fill="#AAA"/><path d="M308.593 50.375V27.087l26.909-8.047v.957l-24.909 7.35v22.964l-2 .064z" fill="#AAA"/><path d="M258 54l156 3V47l-156 5v2z" fill="#F4F4F4"/><path opacity=".75" d="M258 52l156-5V24L258 46v6z" fill="#FEFEFE"/></g><defs><clipPath id="208082e3a2782b2dd6d30b3b2b860b9e__a"><path fill="#fff" d="M0 0h414v104H0z"/></clipPath></defs></svg>